<svg width="24" height="24" viewBox="0 0 24 24" fill="none" xmlns="http://www.w3.org/2000/svg">
<rect x="1" y="1" width="22" height="22" rx="11" fill="#37D320"/>
<path d="M7.05044 13.2842L7.05043 13.2842L7.05197 13.2857L9.13497 15.3687L9.13498 15.3688C9.43971 15.6734 9.85296 15.8445 10.2839 15.8445C10.7147 15.8445 11.128 15.6734 11.4327 15.3688L11.4327 15.3687L17.8657 8.93574L17.8658 8.93576L17.8673 8.93419C17.9811 8.81632 18.0441 8.65844 18.0427 8.49457C18.0413 8.3307 17.9755 8.17394 17.8597 8.05806C17.7438 7.94218 17.587 7.87645 17.4231 7.87502C17.2593 7.8736 17.1014 7.9366 16.9835 8.05044L16.9835 8.05043L16.982 8.05197L10.549 14.485C10.549 14.485 10.549 14.485 10.549 14.485C10.4786 14.5553 10.3833 14.5947 10.2839 14.5947C10.1844 14.5947 10.0891 14.5553 10.0187 14.485C10.0187 14.485 10.0187 14.485 10.0187 14.485L7.93574 12.402L7.93576 12.402L7.93419 12.4004C7.81632 12.2866 7.65844 12.2236 7.49457 12.225C7.3307 12.2264 7.17394 12.2922 7.05806 12.4081C6.94218 12.5239 6.87645 12.6807 6.87502 12.8446C6.8736 13.0084 6.9366 13.1663 7.05044 13.2842Z" fill="white" stroke="white" stroke-width="0.25"/>
</svg>
