<svg width="127" height="86" viewBox="0 0 127 86" fill="none" xmlns="http://www.w3.org/2000/svg">
<circle cx="9.76938" cy="9.76743" r="4.88462" fill="white"/>
<circle cx="9.76938" cy="31.7498" r="4.88462" fill="white"/>
<circle cx="9.76938" cy="53.7303" r="4.88462" fill="white"/>
<circle cx="9.76938" cy="75.7108" r="4.88462" fill="white"/>
<circle cx="36.6346" cy="9.76743" r="4.88462" fill="white"/>
<circle cx="36.6346" cy="31.7498" r="4.88462" fill="white"/>
<circle cx="36.6346" cy="53.7303" r="4.88462" fill="white"/>
<circle cx="36.6346" cy="75.7108" r="4.88462" fill="white"/>
<circle cx="63.4999" cy="9.76743" r="4.88462" fill="white"/>
<circle cx="63.4999" cy="31.7498" r="4.88462" fill="white"/>
<circle cx="63.4999" cy="53.7303" r="4.88462" fill="white"/>
<circle cx="63.4999" cy="75.7108" r="4.88462" fill="white"/>
<circle cx="90.3656" cy="9.76743" r="4.88462" fill="white"/>
<circle cx="90.3656" cy="31.7498" r="4.88462" fill="white"/>
<circle cx="90.3656" cy="53.7303" r="4.88462" fill="white"/>
<circle cx="90.3656" cy="75.7108" r="4.88462" fill="white"/>
<circle cx="117.231" cy="9.76743" r="4.88462" fill="white"/>
<circle cx="117.231" cy="31.7498" r="4.88462" fill="white"/>
<circle cx="117.231" cy="53.7303" r="4.88462" fill="white"/>
<circle cx="117.231" cy="75.7108" r="4.88462" fill="white"/>
</svg>
