<svg width="24" height="24" viewBox="0 0 24 24" fill="none" xmlns="http://www.w3.org/2000/svg">
<path d="M22.7316 1.26839C22.5597 1.09654 22.3266 1 22.0835 1C21.8404 1 21.6073 1.09654 21.4354 1.26839L12 10.7038L2.56458 1.26839C2.39268 1.09654 2.15956 1 1.91649 1C1.67342 1 1.4403 1.09654 1.26839 1.26839C1.09654 1.4403 1 1.67342 1 1.91649C1 2.15956 1.09654 2.39268 1.26839 2.56458L10.7038 12L1.26839 21.4354C1.09654 21.6073 1 21.8404 1 22.0835C1 22.3266 1.09654 22.5597 1.26839 22.7316C1.4403 22.9035 1.67342 23 1.91649 23C2.15956 23 2.39268 22.9035 2.56458 22.7316L12 13.2962L21.4354 22.7316C21.6073 22.9035 21.8404 23 22.0835 23C22.3266 23 22.5597 22.9035 22.7316 22.7316C22.9035 22.5597 23 22.3266 23 22.0835C23 21.8404 22.9035 21.6073 22.7316 21.4354L13.2962 12L22.7316 2.56458C22.9035 2.39268 23 2.15956 23 1.91649C23 1.67342 22.9035 1.4403 22.7316 1.26839Z" fill="white"/>
</svg>
